<?xml version="1.0" encoding="utf-8"?>
<!DOCTYPE svg PUBLIC "-//W3C//DTD SVG 1.0//EN" "http://www.w3.org/TR/2001/REC-SVG-20010904/DTD/svg10.dtd">
<svg version="1.0" xmlns="http://www.w3.org/2000/svg" width="1408px" height="786px" viewBox="0 0 1408 786" preserveAspectRatio="xMidYMid meet">
 <g fill="#010000">
  <path d="M689.1 654.5 c-52 -25.4 -105.7 -69 -138.5 -112.5 -24.4 -32.2 -41.4 -69.6 -50.5 -110.7 -7.9 -35.8 -8.8 -49.5 -8.8 -132.9 0 -73.8 0.1 -75.2 5.9 -86 3.8 -7.2 12.8 -15.9 20.3 -19.9 3.5 -1.7 26 -10.3 50.1 -19 24.1 -8.7 61.3 -22 82.6 -29.7 42.9 -15.5 49.6 -17.1 60.9 -15.1 3.8 0.6 28.2 9 54.4 18.6 26.2 9.6 62.8 23.1 81.3 29.9 18.6 6.8 36.5 13.6 40 15.2 12.2 5.7 22 17.3 26.1 30.7 2 6.7 2 8.8 1.6 81.9 -0.3 75 -0.3 75.1 -3 92 -11.6 73 -36.9 126.4 -83.3 174.9 -30.3 31.7 -75.1 64.7 -113.3 83.1 -10.9 5.3 -14.1 5.2 -25.9 -0.5z m24.6 -17.3 c22.1 -11.8 43.4 -25.6 63 -40.7 l9.7 -7.6 -16.1 -0.3 -16.1 -0.3 -13.1 6.8 c-7.2 3.6 -20.5 10.5 -29.5 15.3 l-16.4 8.7 -17.9 0 -17.8 0 7.6 4.8 c11.1 6.9 32.9 18.7 34.7 18.7 0.8 0 6.1 -2.5 11.8 -5.4z m-53.6 -35 c0 -2.6 -0.4 -4.6 -1 -4.6 -0.5 0 -1 2 -1 4.6 0 2.6 0.5 4.6 1 4.6 0.6 0 1 -2 1 -4.6z m40.9 -3 c7.6 -4.1 20.8 -10.9 29.2 -15.2 8.5 -4.3 14.7 -7.9 14 -7.9 -1.5 0 -16.4 -5.8 -32.4 -12.8 -9.2 -4 -10.8 -4.3 -16.2 -3.9 -4.8 0.5 -5.8 0.8 -5.4 2.3 2 6.9 4.8 23.1 4.5 26.3 -0.3 3.9 -0.4 4 -4.9 4.5 l-4.6 0.5 -0.3 7 c-0.2 5.1 0 6.9 1 6.9 0.7 0 7.6 -3.4 15.1 -7.6z m-67.5 -0.1 c0 -0.8 -0.9 -1.5 -2 -1.5 -1.9 0 -2 -0.7 -2 -15.9 0 -12.2 -0.3 -15.9 -1.3 -15.9 -0.7 0 -4.9 -3.7 -9.4 -8.2 -5.1 -5.2 -8.9 -8.2 -10.3 -8.2 -1.4 0 -4.6 2.7 -9.1 7.8 l-7 7.7 4 4.1 c6.3 6.5 35.6 31.6 36.9 31.6 0.2 0 0.3 -0.7 0.3 -1.5z m15.5 -12.8 c1.7 0 1.9 -0.7 1.9 -6.5 0 -8.6 -2.4 -11.4 -7.3 -8.8 -1.6 0.9 -1.9 2.3 -1.9 8.2 0 5.7 0.3 7.2 1.5 7.2 0.9 0 1.9 0.8 2.4 1.8 0.6 1.6 0.7 1.6 1 0 0.2 -1 1.2 -1.8 2.4 -1.8z m28.1 -5.1 c1.9 0 3.5 -0.2 3.5 -0.4 0 -0.3 -1 -4.7 -2.1 -10 -2.3 -9.8 -4.4 -15.1 -6 -15.1 -1.6 0 -5.1 5.3 -5.1 7.9 0 1.6 -0.7 2.8 -2 3.1 -1.8 0.5 -2 1.4 -2 7.6 l0 7.1 4 0 c2.3 0 4.4 0.5 4.8 1.2 0.6 0.9 0.9 0.9 1.2 0 0.2 -0.7 1.9 -1.2 3.9 -1.2z m95.6 -11.8 l0 -6.7 -3.8 1.5 c-5 2 -7.1 4.3 -8 8.5 l-0.7 3.3 6.2 0 6.2 0 0 -6.7z m58 -24.7 c12.7 -15 25.2 -34 36.3 -55.4 l7.3 -13.7 -3.2 -4.3 c-8.2 -11.1 -28.2 -39.2 -35.1 -49.1 l-7.6 -11.1 -0.5 -68.3 -0.5 -68.3 -2.8 -4.8 c-1.5 -2.6 -4.4 -5.7 -6.4 -7 -1.9 -1.2 -19.5 -7.9 -39.1 -14.9 -19.5 -7.1 -39.6 -14.3 -44.5 -16.1 l-9 -3.3 0 -3.7 c0 -3.1 0.7 -4.4 4.1 -7.5 5.3 -4.7 8.1 -4.7 21.1 0 5.6 2 24.3 8.7 41.5 14.7 17.3 6.1 32.8 11.9 34.7 12.8 5.2 2.8 12.2 9.7 15 15.3 l2.8 5.1 0.5 68 0.5 68 17.9 25.3 c9.8 13.9 18.2 25.3 18.5 25.3 0.9 0.1 7.5 -23.7 10.5 -38.7 6.5 -30.8 7 -37.9 7.5 -108.1 0.3 -46.9 0.1 -66.1 -0.7 -70.5 -2.4 -12.1 -10.2 -23.5 -19.1 -28 -2.1 -1.1 -17.2 -7 -33.6 -12.9 -16.3 -6 -33.8 -12.5 -38.9 -14.4 -10.2 -3.9 -71.5 -26.2 -89 -32.3 -6.1 -2.1 -12.6 -4 -14.2 -4 -4.9 0 -13.4 2.7 -44.6 13.9 -16.6 5.9 -33.9 12.1 -38.4 13.7 -25.3 8.9 -88.8 32.1 -93.3 34.3 -12.4 5.6 -20.1 16.8 -22 32 -1.3 11.3 -0.4 130.4 1.2 145 2.8 25.4 9 55.1 16.1 76.2 6.2 18.9 19.5 44.7 32.7 63.7 l5.5 7.9 16 0 16.1 0 3.3 -3.6 c2.6 -2.9 4 -3.6 7 -3.6 l3.7 0 0 -17.8 c0 -9.8 0.3 -18.5 0.6 -19.4 0.5 -1.4 3.6 -1.6 23.4 -1.6 19.9 0 22.9 0.2 23.4 1.6 0.3 0.9 0.6 5.9 0.6 11.4 0 8.7 0.2 9.6 1.8 9.3 1.6 -0.3 1.7 -2.8 2.3 -29.5 l0.5 -29.2 18.8 -0.3 c12.5 -0.2 19.2 0.1 20 0.8 0.8 0.8 1 10.5 0.8 30.8 l-0.4 29.6 3.7 0 3.7 0 0.2 -19.6 0.3 -19.7 18.4 -0.3 c10.1 -0.1 19.4 0 20.8 0.3 2.1 0.5 2.3 1 2.3 10 l0.1 9.4 1.6 -3.6 c1.2 -2.6 1.5 -6 1.4 -12.3 -0.2 -8.1 -0.1 -9 2.4 -11.6 2.4 -2.6 3.2 -2.8 10.1 -2.8 10.8 0 12.3 1.3 12.8 11.7 0.4 7.5 0.3 7.8 -2.7 10.8 -1.7 1.6 -4.2 3.1 -5.5 3.1 -2 0 -3.2 1.9 -9.3 16.2 -3.9 8.8 -7 16.6 -6.9 17.1 0 0.6 0.5 4.9 0.9 9.7 0.6 6.3 1.7 10.8 4.3 16.6 1.9 4.4 3.8 8 4.2 8 0.4 0 0.3 -1.2 -0.2 -2.7 -0.6 -1.4 -1 -5 -1 -8 0 -4.1 -0.5 -5.8 -2 -7.3 -2.7 -2.4 -2.8 -9.1 -0.1 -13.3 2.8 -4.5 13.3 -9.7 19.6 -9.7 5.6 0 13.8 3.5 18.6 8 2.4 2.3 2.8 3.5 2.8 8 0 3.5 -0.5 5.7 -1.5 6.5 -1.4 1.2 -2.3 7.2 -0.9 7.2 0.3 0 3.7 -2.6 7.5 -5.6 6.1 -5 7.1 -6.1 7.6 -9.9 0.8 -6 3.5 -8.3 10.6 -8.8 7.9 -0.5 11.3 0.9 13.3 5.6 2 5.1 1.2 13.1 -1.8 16.4 -1.8 1.8 -3.4 2.4 -7.6 2.4 -5 0 -5.7 0.3 -13.3 6.7 -4.9 4 -9 6.7 -10.4 6.7 -2.4 0 -2.3 0.2 1.2 3.6 2.4 2.5 3.6 4.6 3.6 6.5 0 1.5 0.2 3.1 0.5 3.4 0.6 0.6 13 -12.1 21.7 -22.3z m-85.2 4.5 l-4.8 -10.8 -4.1 -0.5 c-3.4 -0.5 -5.9 0.3 -14.6 4.2 -5.8 2.6 -10.3 4.9 -10.1 5.2 0.3 0.2 8.7 4 18.7 8.3 22 9.5 22 9.5 14.9 -6.3z m-158.2 -1.6 l4.6 -5.3 -9.9 0 c-9.4 0 -9.8 0.1 -8.6 1.8 4 5.5 7.6 9.4 8.4 9.1 0.5 -0.2 3 -2.7 5.5 -5.6z m47.4 -5.9 c1.6 -3.2 5.2 -4.5 12.2 -4.5 4.9 0 6.5 0.4 9.1 2.7 1.7 1.4 3.2 3.6 3.2 4.6 0 1.1 0.5 1.7 1 1.4 0.7 -0.4 0.7 -1.2 0 -2.6 -0.5 -1 -1 -4.7 -1 -8.2 0 -5.6 0.3 -6.7 3 -9.3 2.8 -2.8 3.6 -3 10.3 -3 6.3 0 7.6 0.3 9.7 2.5 1.4 1.4 2.8 4.3 3.2 6.5 0.6 4 0.7 4.1 3.7 3.1 1.6 -0.6 5.2 -0.8 7.9 -0.4 4.3 0.5 6 0.1 13.1 -3 7.9 -3.6 8.1 -3.8 7.7 -7 l-0.4 -3.3 -7.3 0.3 c-4.1 0.2 -10.7 0.1 -14.7 -0.3 l-7.5 -0.7 -0.2 -30.3 -0.3 -30.4 -7.4 -0.3 -7.5 -0.3 0 29.1 0 29.2 -2.3 0.6 c-3.4 0.8 -23.6 0.7 -25.1 -0.2 -0.8 -0.5 -1.3 -4.4 -1.5 -10.9 l-0.3 -10.2 -10.9 -0.3 -11.1 -0.3 0 21.3 0 21.2 5.9 6 5.8 5.9 0.3 -3.4 c0.1 -1.8 0.7 -4.4 1.3 -5.5z m146.2 2.1 c1.1 -1.3 0.8 -1.5 -2 -1.5 -2.9 0 -3.2 0.2 -2 1.5 0.7 0.8 1.6 1.5 2 1.5 0.4 0 1.3 -0.7 2 -1.5z m-44.2 -46.9 l-0.3 -15.6 -2.8 -0.3 -2.9 -0.3 0 17.5 0 17.5 3.1 -1.6 3.2 -1.6 -0.3 -15.6z"/>
  <path d="M785.6 505.8 c-0.4 -0.3 -0.7 -4.9 -0.7 -10.2 l0 -9.5 5 0 5 0 0.7 -4.2 0.7 -4.2 5 0.4 5 0.3 0 -6.3 0 -6.4 6 0 c5.2 0 6.2 0.3 6.8 2 0.6 1.8 1.7 2 18.7 2.3 l18.1 0.3 0.3 5.9 0.3 5.8 -4.6 0 -4.6 0 -0.3 5.4 -0.3 5.3 -13.3 0 -13.3 0 -0.5 6.7 -0.5 6.7 -16.5 0.3 c-9 0.1 -16.7 -0.1 -17.1 -0.5z"/>
  <path d="M590.4 453.1 c-5.5 -2.8 -8.9 -7.6 -9.8 -13.7 -1.3 -9.3 1.5 -17.5 8.1 -22.3 3.8 -2.8 14.2 -3.5 20.8 -1.2 2.6 0.8 5 1.4 5.4 1.2 0.3 -0.2 15.5 -9.2 33.7 -20.1 l32.9 -19.6 0.2 -5 c0.1 -2.8 0.2 -5.9 0.2 -7.1 0.1 -1.2 -12.5 -15 -36.1 -39.3 l-36.1 -37.3 -5.8 0.5 c-15.6 1.6 -24.7 -7.2 -23.4 -22.6 1 -12.1 7.7 -17.9 20.3 -17.9 8.3 0 14.3 2.8 17.6 8 1.9 3.1 2.4 5.3 2.5 12.5 l0.2 8.6 5.4 5.7 c3.1 3.2 18.6 19.3 34.6 35.9 16.1 16.6 29.7 30.7 30.4 31.5 0.7 0.8 2 1 3.4 0.6 2.1 -0.6 2.1 -0.9 2.1 -36.6 l-0.1 -36 -4.5 -2.8 c-6.2 -3.8 -8.7 -8.9 -8.7 -18.3 0 -13.5 6.9 -20.4 20.3 -20.4 7.4 0 10.9 1.2 14.9 4.9 4.1 3.9 5.7 8.3 5.7 15.9 0 9 -3 14.7 -9.5 18 l-4.8 2.4 0 36.2 0 36.2 2.7 0.6 c2 0.5 3.3 0 5.8 -2.4 1.8 -1.7 14.9 -14.2 29.3 -27.7 l26.1 -24.7 -0.3 -5.6 c-0.4 -8.2 1.3 -13.1 5.9 -17.3 4.6 -4.2 8.7 -5.2 17.5 -4.6 12.3 0.9 18.9 10.8 16.8 24.9 -0.9 6.2 -4.1 10.7 -9.6 13.6 -4 2.1 -5.6 2.4 -12.6 1.9 l-7.9 -0.5 -29.5 27.8 -29.4 27.9 0.3 6.2 0.4 6.2 27.4 16.5 27.5 16.5 4.7 -1.5 c8.7 -3 17.6 -1.6 23.5 3.6 8.4 7.4 7.4 26.3 -1.6 32.7 -2.9 2 -5 2.6 -12.3 2.8 -10.2 0.4 -13.5 -0.7 -18 -6.5 -2.3 -3.1 -2.9 -5.1 -3.3 -10.5 l-0.4 -6.8 -27.6 -16.6 c-27.1 -16.2 -27.7 -16.5 -30.5 -15 -4 2 -18.5 1.9 -22.5 -0.2 -3.6 -1.7 -0.3 -3.5 -45.7 23.6 l-25.8 15.3 0 4.8 c0 6.1 -1.4 9.7 -5.4 13.9 -5.5 5.7 -17.1 7.2 -25.3 3.1z m14.1 -14.1 c2.8 -2.7 2.9 -5.5 0.2 -8.2 -2.7 -2.7 -4.9 -2.6 -7.9 0.2 -3 2.8 -3 4.6 -0.1 7.7 2.8 2.9 4.9 3 7.8 0.3z m193.7 -7.2 c3.4 -3.3 3.2 -4.8 -1.1 -8.7 -1.9 -1.8 -2.5 -1.8 -4.8 -0.5 -1.4 0.8 -3.3 2.6 -4.1 3.8 -1.4 2.1 -1.3 2.6 1.5 5.4 3.9 3.8 4.7 3.8 8.5 0z m-90 -54.1 c1.6 -1.6 3 -3.9 3 -4.9 -0.1 -2.4 -2.9 -5.8 -5.9 -7.4 -2 -1.1 -2.8 -0.8 -5.8 2.3 -1.9 1.9 -3.6 4.1 -3.6 4.8 0 1.5 6.5 8.2 8.2 8.2 0.6 0 2.6 -1.3 4.2 -3z m89.6 -84.2 c3 -2.8 3 -4.6 0.1 -7.7 -2.9 -3.1 -5.4 -3 -8.6 0.2 -2.4 2.4 -2.5 2.7 -1 5.5 2.5 4.7 5.8 5.4 9.5 1.9z m-193.1 -20.3 c1.1 -1.1 2 -3 2 -4.1 0 -2.7 -3.5 -6.1 -6.1 -6.1 -2.3 0 -6.1 3.8 -6.1 6 0 2.1 4.1 6.2 6.3 6.2 1 0 2.8 -0.9 3.9 -2z m102.1 -9.8 c4.2 -2.9 4.6 -5 1.6 -8.5 -1.4 -1.7 -3.5 -3.2 -4.5 -3.2 -1 0 -3.1 1.4 -4.5 3.2 -2 2.5 -2.5 3.5 -1.6 5 1 1.8 4.9 5.1 6.1 5.1 0.3 0 1.6 -0.7 2.9 -1.6z"/>
 </g>
 <g fill="#cf332d">
  <path d="M690.9 549.3 c-1.7 -1.7 -1.5 -3.7 0.7 -4.8 2.5 -1.3 5.6 0.8 5 3.6 -0.4 2.3 -3.9 3.1 -5.7 1.2z"/>
  <path d="M604.7 538.3 c-1.6 -3.2 0.4 -6.4 3.8 -6 5.6 0.7 5.6 7.1 0 7.8 -1.8 0.2 -3 -0.3 -3.8 -1.7z"/>
  <path d="M740.5 528.9 c-2 -1.1 -2.3 -4.1 -0.5 -5.8 1.5 -1.5 4.9 0.3 4.9 2.8 0 2.8 -2.1 4.3 -4.4 3.1z"/>
  <path d="M525 473.8 c-10.7 -25 -21.6 -78.5 -21.6 -106.5 0 -6.1 0.2 -7.1 1.8 -7.1 1.7 0 2 1.3 2.6 13.1 1.2 23.1 7.9 58.7 15.1 80.8 2.8 8.4 3.4 9.3 4.5 7.7 10.8 -15.9 61.2 -104.5 83.5 -147.1 l8.1 -15.2 -4.8 -4.9 -4.8 -4.9 -8.9 0 c-7.5 0 -9.3 -0.3 -12.3 -2.4 -7.5 -5 -10.3 -13.8 -8.1 -24.8 2.1 -10.5 10.6 -15.8 23.6 -14.5 12.3 1.1 17.3 7.2 17.3 20.9 0 7.9 0.1 8.2 3.5 11.5 l3.4 3.3 13.9 -27.4 c7.6 -15 20.2 -40.7 27.8 -57.1 7.7 -16.3 16.4 -34.6 19.1 -40.7 2.9 -6 4.9 -11.3 4.6 -11.6 -0.3 -0.4 -1.9 -0.2 -3.5 0.4 -1.5 0.6 -17.8 6.4 -36.1 13 -100.1 35.9 -121.4 43.8 -127.8 47.1 -6.4 3.2 -13.7 11.5 -16.7 18.7 -2.4 5.8 -2.4 5.8 -2.7 67 -0.2 50.2 -0.5 61.1 -1.6 61.1 -0.8 0 -1.6 -1 -2 -2.3 -1 -3.8 -0.6 -111.2 0.4 -119.2 1.7 -13.7 9.9 -25.1 21.8 -30.5 4.5 -2.1 67.7 -25.3 93.3 -34.3 4.5 -1.6 22.2 -7.9 39.4 -14.1 17.2 -6.1 33.7 -11.8 36.7 -12.5 10.5 -2.5 16.5 -1.2 48.5 10.6 16.2 5.9 29.9 10.8 30.4 10.8 4.2 0 -4.3 5.7 -40.8 27.6 -23 13.8 -41.5 25.4 -41.2 25.7 0.4 0.3 6 1.1 12.5 1.7 6.5 0.6 15.1 1.8 19.2 2.8 6.2 1.4 7.3 1.9 6.2 3.2 -0.6 0.8 -1 1.6 -0.8 1.8 0.5 0.4 5.6 2.3 54.1 19.6 19.3 7 36.9 13.8 39 15.1 2.3 1.5 4.8 4.6 6.4 7.9 l2.7 5.4 0 66.1 c0 61.6 0.1 66.3 1.8 69.7 2.1 4.3 22 32.7 35.8 51.4 7.9 10.7 9.5 13.5 9 15.6 -0.4 1.4 -1 2.6 -1.5 2.6 -0.5 0 -11.8 -6.3 -24.9 -14.1 -13.1 -7.8 -28.2 -16.7 -33.7 -19.6 l-9.7 -5.5 1.9 -4.8 c3 -6.9 1.7 -13.4 -3.3 -18.4 -6.2 -6.3 -13.5 -7.3 -21.7 -2.8 l-3.7 2 -29.6 -17.8 -29.6 -17.7 0 -6.1 c-0.1 -3.4 -0.4 -7.2 -0.8 -8.4 -0.7 -1.9 3.3 -6 30.7 -31.9 22.4 -21.3 31.8 -29.7 32.9 -29.2 5.2 2.1 9.6 2.7 13.3 1.5 8.1 -2.4 12.6 -8.3 12.6 -16.5 0 -15.2 -16.7 -22.7 -27.9 -12.6 -5 4.5 -6.8 10 -5.2 16.7 1.3 5.4 4.7 1.4 -29 33.3 -11.8 11.2 -23.8 22.6 -26.8 25.4 l-5.2 5 -4.7 -1.7 -4.7 -1.8 0 -39.2 0 -39.2 4.4 -1.9 c10.2 -4.5 13 -18 5.5 -26.5 -5.8 -6.7 -13 -8.1 -20.9 -4.3 -12.2 5.9 -12.7 23.2 -0.8 30.4 l4.5 2.8 0.1 38.9 0 39 -3.8 1.6 c-3 1.4 -4.1 1.4 -5.4 0.5 -0.9 -0.7 -15.2 -15.2 -31.8 -32.4 -16.5 -17.1 -33.2 -34.3 -36.9 -38.1 l-6.9 -7.1 1.6 -3.7 c3.1 -7.6 -0.7 -17 -8.3 -20.7 -5.4 -2.7 -10 -2.8 -15.3 -0.1 -14.2 7 -11.8 27.6 3.7 31.7 3.4 0.9 5.1 0.8 8.9 -0.4 l4.7 -1.6 19.7 20.2 c53.4 54.7 57.8 59.6 56.5 61.2 -0.7 0.9 -1.3 4.6 -1.4 8.4 l-0.1 6.9 -35.3 21.3 c-19.4 11.7 -35.8 21.2 -36.4 21.3 -0.6 0 -1.7 -0.6 -2.4 -1.4 -1.8 -2.1 -9.8 -4 -14.1 -3.2 -5.1 0.9 -11.1 7 -12.6 12.7 -1 3.7 -0.9 5.3 0.5 9.2 0.9 2.6 1.7 5.3 1.8 5.9 0.2 1.4 -55.1 33.1 -57.7 33.1 -1 0 -2.6 -1.9 -3.9 -5.1z"/>
  <path d="M762.3 473.3 c-2 -2.6 -0.8 -5.1 2.6 -5.1 2.1 0 3.2 0.5 3.4 1.8 0.4 2.1 -1.4 4.8 -3.4 4.8 -0.7 0 -1.8 -0.7 -2.6 -1.5z"/>
  <path d="M696.2 380.2 c-2.9 -2.9 -3.5 -4.3 -3.5 -7.8 0 -3.5 0.6 -4.9 3.5 -7.8 3.9 -3.9 7.9 -4.5 12.7 -2 4.9 2.6 7.2 9 4.9 14.2 -1.8 4.6 -5.2 6.9 -10.1 6.9 -3.2 0 -4.7 -0.7 -7.5 -3.5z m11.3 -3.3 c3.5 -3.6 3.4 -5.7 -0.5 -9 -3.5 -3 -5.8 -2.5 -8.7 1.9 -1.8 2.8 -0.9 5.5 2.9 8.1 3 2.1 3.2 2.1 6.3 -1z"/>
 </g>
 <g fill="#747677">
  <path d="M688.9 641 c-12.7 -6.5 -40 -23 -40.1 -24.1 0 -0.5 9.8 -0.8 21.8 -0.8 l21.7 0 16.4 -8.7 c9 -4.8 22.2 -11.8 29.5 -15.3 l13 -6.7 23 0.2 22.9 0.3 -12.2 9.6 c-6.8 5.3 -17.3 13.2 -23.4 17.6 -20 13.9 -54.5 33.6 -59.2 33.7 -1.2 0 -7.2 -2.6 -13.3 -5.7z m12.1 -12.3 c0 -6.4 -0.3 -11.7 -0.7 -11.7 -0.5 0.1 -1.9 0.7 -3.4 1.5 -1.9 1.1 -6.5 1.4 -18.4 1.5 l-15.9 0 3.8 2.6 c7.3 4.9 32.8 18.8 33.8 18.3 0.4 -0.3 0.8 -5.8 0.8 -12.3z"/>
  <path d="M642.6 600 c0 -8.9 -0.2 -9.8 -2 -10.3 -4 -1 -2.4 -3.4 2.5 -3.4 2.5 0 5.9 -0.3 7.7 -0.6 2.8 -0.6 3.2 -0.4 3.2 1.5 0 1.4 -0.6 2.1 -2 2.1 -1.1 0 -2 0.6 -2.1 1.3 -0.2 3.4 -1.1 6.3 -1.9 6.7 -0.6 0.2 -1 3.1 -1 6.4 0 5.3 -0.2 6 -2 6 -1.9 0 -2 -0.7 -2 -9.8z"/>
  <path d="M654.9 602.2 c0 -7.5 0.1 -7.7 2.6 -7.7 l2.6 0 0 -12.7 c0 -15.3 -0.7 -17.6 -6.1 -19.7 l-4 -1.6 3 -2.8 c4.6 -4.3 4.5 -10.3 -0.1 -14.5 -4.4 -4.2 -11.4 -3.6 -14.9 1.1 -2.3 2.9 -1.6 9.9 1.1 13 l2.4 2.9 -3.2 2.1 c-4.9 3.4 -5.7 5.8 -5.7 19.7 0 11.8 0.1 12.5 2 12.5 1.4 0 2 0.7 2 2.1 0 1.9 -0.4 2.1 -3.3 1.5 l-3.4 -0.6 3.3 2.3 c2.4 1.6 3.4 3.2 3.4 5.2 0 1.5 -0.3 2.8 -0.6 2.8 -2.1 0 -34.5 -27.1 -44.2 -37 l-5.4 -5.6 8.6 -9.6 8.6 -9.6 5.3 0.3 c4.3 0.3 5.2 0.7 5.2 2.4 0 1.5 -0.7 1.9 -4 1.9 -3.7 0 -4.5 0.6 -10.3 7.2 l-6.4 7.3 6.5 7 c3.6 3.9 7.1 7.1 7.7 7.2 0.7 0 2.7 1.7 4.4 3.7 1.7 1.9 3.6 3.6 4.1 3.6 0.5 0 1.8 1.1 3 2.6 1.1 1.4 2.5 2.6 3 2.6 0.6 0 1.8 0.9 2.9 2 1 1.1 2.3 2 2.7 2 0.4 0 0.9 -6.7 1.1 -14.8 0.3 -12.9 0.1 -14.8 -1.2 -14.8 -2.7 0 -4.1 -2.3 -4.1 -6 l0 -3.6 3.7 3.6 c3.5 3.4 3.7 3.4 5.1 1.5 0.8 -1.1 1.4 -2.5 1.4 -2.9 0 -0.5 -3.5 -4.5 -7.7 -8.9 l-7.7 -8 0 -6.9 c0 -6 0.2 -6.8 2 -6.8 1.7 0 2 0.7 2 5.4 0 5.1 0.3 5.6 5.1 10.4 4.9 4.9 5.1 4.9 5.1 2.4 0 -1.6 1.2 -4.1 3.1 -6 2.6 -2.9 3.8 -3.4 8.9 -3.7 4.5 -0.3 6.9 0.1 9.8 1.5 l3.8 2 0 -4.6 c0 -5.6 2.3 -10 6.1 -12.1 3.6 -1.8 12.2 -2 15.9 -0.3 3.1 1.3 5.6 5.6 5.6 9.2 0 2.3 0.2 2.4 7.7 2 l7.7 -0.4 0 -6 0 -6 -6.5 0 c-5.9 0 -6.5 -0.2 -7.2 -2.3 -0.3 -1.3 -0.6 -15.1 -0.6 -30.7 l0 -28.4 -6.7 0 -6.7 0 -0.2 29 -0.3 28.9 -4.8 0.3 c-3.8 0.2 -4.9 0 -4.9 -1.2 0 -0.8 1.3 -1.7 3.1 -2.1 l3.1 -0.7 0 -29.1 0 -29.2 10.5 0.3 10.4 0.3 0.3 30.3 0.2 30.3 5.4 0.7 c6.8 0.7 14.8 0.8 17.9 0 2.3 -0.6 2.3 -0.8 2.3 -20.5 l0 -20 11.6 0.3 11.5 0.3 0.3 18.5 0.2 18.6 -3.5 2 c-2.7 1.5 -3.8 3.1 -4.2 5.6 -0.6 3 -1.3 3.9 -4.9 5.2 -2.4 0.9 -9.3 3.9 -15.5 6.7 -10.7 4.7 -11.4 4.9 -14.6 3.6 -9.6 -4.1 -17.4 8.6 -9.4 15.3 3.5 3 4.7 3.2 10 1.5 3.4 -1 4.7 -0.7 15.5 4 16.3 7.1 32.3 13.5 33.8 13.5 0.6 0 1 -1.1 0.8 -2.8 -0.3 -2.7 -1.8 -3.5 -22.5 -12.5 -12.3 -5.2 -22.3 -10.1 -22.3 -10.7 0 -0.7 3.4 -2.7 7.5 -4.4 4 -1.7 11.1 -4.8 15.7 -6.8 7.2 -3.1 8.4 -3.4 10.1 -2.1 1 0.8 3.2 1.4 4.6 1.4 2.4 0 3.2 1 7.1 10 2.5 5.4 4.7 10.2 5.1 10.6 1.1 1.3 5.2 -0.4 5.2 -2.1 -0.1 -0.9 -2.1 -5.9 -4.6 -11.3 -3.3 -7.2 -4.2 -10.1 -3.5 -11.5 1.4 -2.8 1.1 -7 -0.7 -10 -1.6 -2.8 -1.5 -3.2 5.4 -19.1 4 -8.9 7.5 -17.3 7.9 -18.5 0.5 -1.6 1.5 -2.4 3.3 -2.4 1.5 0 3.9 -1.3 5.7 -3.1 2.9 -2.9 3.1 -3.7 2.6 -8 -0.6 -6 -3.4 -8.4 -9.6 -8.4 -7.9 0 -11.5 6.2 -8.4 14.7 1 2.9 0.5 4.6 -4.3 16.3 l-5.5 13.1 -0.3 -16.4 c-0.2 -16.1 -0.3 -16.5 -2.6 -17 -1.2 -0.3 -9.1 -0.4 -17.6 -0.3 l-15.3 0.3 -0.3 19.7 -0.2 19.6 -6.8 0 -6.7 0 0.2 -29.8 c0.1 -17.7 -0.2 -30.1 -0.8 -30.7 -0.5 -0.5 -7.7 -0.8 -16.8 -0.7 l-15.8 0.3 -0.5 29.2 -0.5 29.2 -4.8 0.3 c-4.4 0.3 -4.9 0.1 -4.9 -1.7 0 -1.7 0.6 -2.1 3.1 -2.1 l3.1 0 0 -27.8 c0 -15.9 0.4 -28.7 1 -29.5 0.7 -1.2 4.3 -1.6 18.7 -1.8 12 -0.3 18.6 0 20.1 0.7 l2.1 1.2 0 -26.7 c0 -22.7 -0.2 -26.6 -1.5 -26.6 -0.8 0 -3.6 -0.7 -6.1 -1.5 l-4.6 -1.6 -33.8 20.2 c-18.5 11.1 -33.8 20.5 -33.8 21 0 0.5 -0.6 0.9 -1.4 0.9 -1.5 0 -3.1 -4.2 -1.8 -5.2 0.7 -0.6 53.6 -32.2 65.4 -39.1 l6.4 -3.7 4.3 2.5 c6 3.5 13.9 3.5 19.6 0.1 l4.2 -2.5 29.6 17.8 29.6 17.8 0.1 6.4 c0.1 5.4 0.6 7.1 3 10.2 3.7 4.9 7.7 6.9 13.7 6.9 5.9 0 11.3 -2.6 14.3 -7.1 1.1 -1.7 2.4 -2.9 2.6 -2.4 0.1 0.4 4.7 3.3 10 6.3 17 9.6 54.6 31.9 56.1 33.3 1 0.9 0.1 3.6 -4.8 13.4 -10.8 21.7 -24.9 43.3 -38.4 59.1 -8.4 9.9 -25.5 28.2 -26.3 28.2 -0.4 0 -1 -2.7 -1.4 -5.8 -1.1 -9 -3.1 -11.1 -15.2 -16.1 l-3.9 -1.6 3.1 -3.5 c2.6 -2.9 3.2 -4.7 3.8 -10.7 0.4 -4.1 1.3 -7.7 2.1 -8.4 2.3 -1.8 1.6 -5.4 -1.3 -8.3 -3.5 -3.2 -12.8 -8 -15.6 -8 -4.1 0 -14.8 6.7 -17 10.5 l-2 3.7 2.3 2.4 c1.6 1.7 2.3 4 2.6 9.2 0.3 5.1 1 7.8 2.8 10.1 1.2 1.7 2.1 3.3 1.9 3.4 -0.1 0.2 -3.4 1.7 -7.2 3.5 -8.1 3.7 -10 6.7 -10.8 16.3 -0.2 3.6 -0.9 6.4 -1.4 6.4 -1.3 0 -29.7 14.3 -46.4 23.4 -12.2 6.7 -18.9 8.9 -18.9 6.2 0 -0.5 -0.7 -1 -1.5 -1 -1.3 0 -1.5 -1.4 -1.3 -8.9 l0.3 -9 4.4 -0.3 c2.5 -0.2 4.6 -0.9 4.9 -1.6 0.6 -1.5 -5.3 -29.4 -7.3 -34.1 -0.7 -1.7 -2.8 -4.2 -4.5 -5.5 -3 -2.1 -3.1 -2.4 -1.2 -3.7 3.1 -2.1 4.6 -7.8 3.2 -12.1 -1.5 -4.5 -4.5 -6.7 -9.5 -6.7 -5.1 0 -9.9 4.4 -9.9 9.2 0 3.7 2.4 8.7 4.8 10 1.4 0.8 1.2 1.2 -1.5 2.7 -4 2 -5.9 5 -6.7 10 -0.4 2.6 -0.1 4.2 0.9 4.9 2 1.7 4.5 0.5 4.5 -2.4 0 -1.4 0.9 -3.7 2.1 -5.2 1.6 -2 3 -2.7 6 -2.7 3.4 0 4.3 0.5 5.5 2.9 1.2 2.5 6.8 25.1 6.8 27.8 0 0.5 -1.8 1 -4 1 -2.7 0 -4.2 0.5 -4.6 1.6 -0.3 0.9 -0.6 6.7 -0.6 12.8 l0 11.2 -3.1 0 c-3.1 0 -3.1 -0.1 -3.1 -5.6 0 -3.1 0.5 -5.6 1 -5.6 0.6 0 1 -2.3 1 -5.1 0 -2.8 -0.4 -5.1 -0.9 -5.1 -0.5 0 -1.1 -0.9 -1.4 -2.1 -0.4 -1.5 -1.2 -2 -3 -1.7 -2.3 0.3 -2.4 0.6 -2.7 12.9 l-0.3 12.5 -4 0 -4.1 0 0 -7.7z m38.9 0 l7.2 -3.6 0 -19.4 0 -19.4 -5.1 0 c-2.8 0 -5.1 0.4 -5.1 1 0 0.5 0.9 4.8 1.9 9.4 1.1 4.7 2.4 11.4 2.7 14.8 0.7 5.6 0.5 6.3 -1.3 7.4 -1.1 0.6 -3.5 1.1 -5.2 1.1 l-3.2 0 0 6.1 c0 3.4 0.2 6.1 0.5 6.1 0.3 0 3.8 -1.6 7.7 -3.6z m-14.5 -22.5 c0.7 -0.6 -4.2 -20.1 -5.5 -21.9 -1.1 -1.4 -1.4 -1.4 -3.3 0.3 -1.1 1 -2.5 3.6 -2.8 5.8 -0.4 2.5 -1.2 4 -2.1 4 -1.1 0 -1.4 1.6 -1.4 6.8 l0 6.9 7.4 -0.7 c4 -0.3 7.6 -0.8 7.8 -1.1z m132 -36.1 c8 -6.5 8.5 -6.9 13 -6.5 3.8 0.3 5.2 0 7.2 -1.8 7 -6.5 1.2 -17.7 -8.3 -15.9 -4.3 0.7 -6.7 3.6 -7.3 8.7 -0.5 3.8 -1.4 4.8 -9.1 10.9 -4.7 3.7 -8.6 7.1 -8.6 7.3 0 0.8 3.3 4.3 4.1 4.3 0.3 0 4.4 -3.1 9 -7z m-83.7 -24.3 c0 -5.5 -0.1 -5.6 -3 -5.6 -3.3 0 -4.2 1.4 -4.2 6.5 0 4.1 0.6 4.7 4.3 4.7 2.8 0 2.9 -0.1 2.9 -5.6z m0 -15.3 l0 -5.6 -3.6 0 -3.6 0 0 4.9 c0 5.8 0.4 6.3 4.3 6.3 2.8 0 2.9 -0.1 2.9 -5.6z m67.3 -7.9 l0.3 -7 -3.7 0 -3.6 0 0 6.4 c0 7.4 0.4 8.1 4.1 7.7 2.5 -0.3 2.6 -0.7 2.9 -7.2z m8.2 6.8 c2.1 -0.6 2.3 -1.1 2.3 -10.6 0 -9.9 0 -10 -2.7 -10.6 -1.5 -0.4 -3 -0.5 -3.2 -0.2 -1 0.9 -1.6 14.6 -0.9 18.4 0.7 3.9 0.9 4 4.5 3.1z m13.3 -14.7 c0.3 -18.2 0.1 -19.4 -3.9 -19.4 l-3.1 0 0 17.5 0 17.4 3.4 -0.3 3.3 -0.3 0.3 -14.8z m-88.8 0.5 l0 -5.6 -3.6 0 -3.6 0 0 5.6 0 5.6 3.6 0 3.6 0 0 -5.6z m116.1 0.4 c0.4 -0.5 0.4 -2.1 0.1 -3.6 -0.6 -2.5 -0.8 -2.6 -10.6 -2.3 -8.6 0.3 -9.9 0.5 -10.2 2.1 -0.8 4.3 0.3 4.8 10.4 4.8 5.7 0 10 -0.4 10.3 -1.1z m9.5 -12.9 l-0.3 -2.9 -15 -0.3 -15.1 -0.3 0 3.2 0 3.1 15.5 0 15.3 0 -0.3 -2.8z"/>
  <path d="M822.1 529.5 c-0.7 -1.7 1.2 -4.6 3.2 -4.6 1.9 0 3.7 2.6 3 4.5 -0.8 2 -5.4 2.1 -6.1 0.1z"/>
  <path d="M809.4 590.1 c0 -0.2 1.5 -1.6 3.4 -3.4 l3.3 -3 -3 3.4 c-2.9 3.1 -3.7 3.8 -3.7 3z"/>
  <path d="M649.8 578.1 c0 -5 -0.3 -6.2 -2 -7.2 -1.5 -0.8 -2.5 -0.6 -4.1 1 -3.1 3.1 -5.3 2.7 -4.9 -0.7 0.4 -3.5 5.6 -5.6 10.4 -4.3 4.1 1.2 4.7 2.4 4.7 10.4 0 6.1 -0.2 6.9 -2 6.9 -1.8 0 -2 -0.7 -2 -6.1z"/>
  <path d="M579.2 575.4 l-5.6 -5.9 5.9 5.6 c5.4 5.1 6.3 6.1 5.5 6.1 -0.1 0 -2.8 -2.7 -5.8 -5.8z"/>
  <path d="M757.5 572.9 c0.6 -7.5 2.1 -9.4 9.6 -12.2 8.7 -3.3 8.5 -3.5 8.5 8.2 l0 10.2 -9.3 0 -9.4 0 0.6 -6.2z"/>
  <path d="M781.8 568.9 c0 -7.6 0.3 -10.2 1.3 -10.1 0.6 0 4 1 7.4 2.3 7.1 2.6 9.7 6.3 9.7 13.8 l0 4.3 -9.2 0 -9.2 0 0 -10.2z m13.1 1.8 c-0.3 -4.4 -0.3 -4.4 -4.4 -4.4 -4.1 0 -4.1 0 -4.4 4.4 l-0.3 4.3 4.7 0 4.7 0 -0.3 -4.3z"/>
  <path d="M573.4 551.3 c-3.8 -4.7 -7.6 -9.3 -8.4 -10.2 -1.4 -1.7 -0.6 -1.8 16 -1.8 12.3 0 17.6 0.3 17.6 1.1 0 1.3 -16.2 19.3 -17.4 19.3 -0.5 0 -4 -3.8 -7.8 -8.4z m10.8 -1.3 c1.3 -1.4 3 -2.6 3.8 -2.6 0.7 0 1.3 -0.9 1.3 -2 0 -1.8 -0.7 -2 -7.7 -2 -4.2 0 -7.7 0.4 -7.7 0.8 0 0.5 0.9 1.7 2 2.8 1.1 1 2 2.5 2 3.2 0 1.1 1.3 2.1 3.2 2.4 0.3 0.1 1.6 -1 3 -2.5z"/>
  <path d="M643.2 553 c-1.9 -1.8 -1.9 -2 -0.6 -4.6 0.6 -1 1.9 -1.9 3.1 -1.9 1.9 0 5.1 2.6 5.1 4.1 0 1.3 -3.1 4.1 -4.6 4.1 -0.7 0 -2.1 -0.7 -3 -1.6z"/>
  <path d="M776 548.5 c-2.7 -1 -5.5 -4.9 -5.5 -7.4 0 -1.6 1 -1.8 8.6 -1.8 8.5 0 8.5 0 8.1 2.5 -0.9 4.8 -7 8.4 -11.2 6.8z"/>
  <path d="M669.2 538.8 c-0.6 -0.8 -1 -2.6 -0.8 -3.9 0.2 -1.9 0.9 -2.4 3.9 -2.4 3 0 3.7 0.4 3.9 2.4 0.4 2.9 -1.4 5.3 -3.9 5.3 -1 0 -2.4 -0.7 -3.1 -1.4z"/>
  <path d="M773.1 533.1 c0.3 -0.5 3.5 -1 7 -0.9 4.5 0 5.7 0.3 4.3 0.9 -3 1.2 -12.1 1.2 -11.3 0z"/>
  <path d="M554.3 526.8 c-7.2 -10.2 -15.9 -24.9 -22.4 -38.2 -5.8 -11.8 -5.9 -12.3 -3.9 -13.2 1.1 -0.5 2.1 -0.7 2.4 -0.5 0.1 0.2 2.3 4.6 4.7 9.6 2.4 5.1 7.6 14.5 11.5 21 9.8 16.6 10.3 17.3 13.2 20.6 l2.5 3 16.7 0 c15.7 0 16.6 -0.1 17.2 -2 0.3 -1.1 1.1 -2 1.6 -2 0.6 0 1.7 -0.7 2.6 -1.5 0.9 -0.9 3.5 -1.5 6.1 -1.5 3.8 0 4.5 0.3 4.5 2 0 1.6 -0.7 2 -3.7 2 -3 0 -4.4 0.7 -7 3.6 l-3.3 3.6 -19 0 -19 0 -4.6 -6.3z"/>
  <path d="M768.9 525 c1 -1.1 3.2 -2.5 4.8 -3.1 2.9 -1 3 -0.9 3 2 0 2.9 -0.2 3 -4.8 3 -4.6 0 -4.7 0 -3 -1.9z"/>
  <path d="M781.6 523.9 c-0.5 -3.6 -0.4 -3.6 4.2 -1.2 5.1 2.6 5.2 4.3 0.3 4.3 -3.7 0 -4.1 -0.2 -4.5 -3.1z"/>
  <path d="M643.3 518.1 c-0.4 -0.3 -0.7 -5.2 -0.7 -10.7 l0 -10 -12.3 0 c-11.7 0 -12.3 -0.1 -12.3 -2 0 -2 0.5 -2 14.1 -1.8 l14 0.3 0.3 10.4 c0.3 10.2 0.3 10.5 2.8 11.2 4.1 1 3.2 3.5 -1.3 3.5 -2.1 0 -4.3 -0.3 -4.6 -0.7z"/>
  <path d="M607.8 488.2 c0 -2.7 0.5 -4.2 1.6 -4.6 0.9 -0.3 10.9 -0.6 22.4 -0.6 11.5 0 21.5 0.3 22.4 0.6 2.1 0.8 2.4 8.6 0.2 8.6 -0.8 0 -1.7 -1.1 -2 -2.6 l-0.6 -2.6 -20 0 -20 0 -0.6 2.6 c-1 4.2 -3.5 3.2 -3.5 -1.4z"/>
  <path d="M879.9 457.2 c-1.3 -1.8 -10.1 -14.4 -19.7 -27.9 l-17.5 -24.6 -0.5 -68 -0.5 -68 -2.8 -5.1 c-2.7 -5.2 -9.5 -12.4 -14.2 -14.9 -1.3 -0.7 -9.5 -3.9 -18.2 -7 -15.2 -5.5 -19.9 -8.3 -13.8 -8.3 3.6 0 13.7 3.2 13.7 4.3 0 0.4 0.7 0.8 1.7 0.8 2.7 0 12.6 3.4 12.6 4.3 0 0.4 1.1 0.8 2.5 0.8 1.4 0 3.2 0.7 4.1 1.5 0.8 0.8 1.9 1.5 2.6 1.5 0.6 0 1.1 0.7 1.1 1.5 0 0.8 0.8 1.5 1.8 1.5 2.4 0 5.3 3.1 5.3 5.4 0 0.9 0.6 1.7 1.4 1.7 0.7 0 2.5 2.5 3.8 5.4 l2.5 5.3 0.5 68.5 c0.4 53.5 0.8 68.6 1.8 69 0.6 0.2 1.2 1.2 1.2 2.4 0 1 0.7 1.9 1.5 1.9 0.8 0 1.5 0.7 1.5 1.5 0 0.8 0.5 1.5 1 1.5 0.6 0 1 0.7 1 1.5 0 0.8 0.5 1.5 1 1.5 0.6 0 1 0.9 1 2 0 1.1 0.7 2 1.5 2 0.8 0 1.5 0.7 1.5 1.5 0 0.8 0.5 1.5 1 1.5 0.6 0 1 0.9 1 2 0 1.1 0.7 2 1.5 2 0.8 0 1.5 0.6 1.5 1.4 0 0.8 0.7 1.6 1.5 2 0.8 0.3 1.5 1.2 1.5 2.1 0 0.8 0.5 1.5 1 1.5 0.6 0 1 0.6 1 1.4 0 0.8 0.7 1.6 1.5 2 0.8 0.3 1.5 1.2 1.5 2.1 0 0.8 0.5 1.5 1 1.5 0.6 0 1 0.9 1 2 0 1.1 0.7 2 1.5 2 0.8 0 1.5 0.7 1.5 1.5 0 0.8 0.5 1.5 1 1.5 0.6 0 1 0.7 1 1.5 0 0.8 0.6 1.5 1.4 1.5 2.6 0 11.5 -35.5 14.6 -58.5 1.5 -11.1 2.1 -13.1 3.6 -13.1 2.3 0 2.3 -0.7 0.2 13.5 -3.4 24.8 -14 67.3 -16.8 67.3 -0.5 0 -1.9 -1.5 -3.2 -3.3z"/>
  <path d="M589.4 453.4 c-1.9 -1 -4.4 -3.1 -5.5 -4.6 -1.9 -2.5 -1.9 -2.8 -0.4 -4.4 1.6 -1.5 1.9 -1.4 4.3 1.4 3.7 4.4 10.1 6.8 15.8 5.9 5.7 -0.8 12 -6.3 13.7 -11.9 1.5 -5.2 3.9 -5.3 3.9 0 0 4.6 -3.2 9.8 -8.1 13.1 -4.6 3.2 -18.2 3.4 -23.6 0.4z"/>
  <path d="M597 444.1 c-3.3 -1.3 -6.5 -6 -6.5 -9.4 0 -3.8 6 -10 9.6 -10 10.7 0 14.8 13.4 5.7 18.7 -3.2 1.9 -5.5 2 -8.8 0.7z m8.5 -5.7 c3.8 -3.7 -0.4 -9.6 -6.9 -9.6 l-4.1 0 0 5.5 c0 5.3 0.1 5.6 2.9 6 3.5 0.5 6.3 -0.2 8.1 -1.9z"/>
  <path d="M786 434.3 c-2.9 -3.7 -2.8 -8.8 0.3 -12.4 l2.5 -2.9 0 9 c0 4.9 -0.1 8.9 -0.3 8.9 -0.2 0 -1.3 -1.2 -2.5 -2.7z"/>
  <path d="M800.2 431.9 c0 -1.6 -0.3 -4.3 -0.6 -6 -0.6 -2.9 -1.1 -3.3 -5.1 -3.9 -4.6 -0.6 -6.1 -2.9 -2.6 -3.8 7.9 -2 15.1 7.5 11.4 14.7 -1.5 2.9 -3.1 2.4 -3.1 -1z"/>
  <path d="M898.4 374.5 c0 -3.4 0.3 -4.1 2 -4.1 2.1 0 2.6 1.6 1.4 5.9 -1.1 4 -3.5 2.8 -3.5 -1.8z"/>
  <path d="M491.4 368.4 c0 -1.9 0.2 -2.8 0.5 -1.7 0.2 0.9 0.2 2.6 0 3.6 -0.3 0.9 -0.5 0.1 -0.5 -1.8z"/>
  <path d="M899.4 347.9 c0 -15.7 0.1 -16.4 2 -16.4 1.9 0 2 0.7 2 14.1 0 15.2 -0.5 18.6 -2.7 18.6 -1.1 0 -1.4 -3.1 -1.4 -16.4z"/>
  <path d="M789 298.5 c-4.6 -2.7 -6.7 -9.5 -4.2 -14.1 1.3 -2.5 6.2 -5 9.6 -5 3.8 0 8.8 4.9 9.4 9.3 0.5 3.1 0.1 4.2 -2.3 7 -3.5 3.8 -8.8 5 -12.6 2.9z m11.1 -4.4 c0.2 -0.2 0 -2.4 -0.3 -4.9 -0.6 -4.2 -1 -4.5 -4.3 -5.2 -3 -0.5 -3.9 -0.2 -5.5 1.7 -2.8 3.4 -2.6 6.2 0.7 8.2 2.5 1.4 7.8 1.5 9.4 0.2z"/>
  <path d="M597 278.3 c-3.1 -1.2 -6.5 -5.9 -6.5 -8.9 0 -5.3 5.1 -10.5 10.2 -10.5 5.2 0 10.2 5 10.2 10.1 0 7.2 -7.3 12.1 -13.9 9.3z m7.8 -5.1 c1.1 -1.1 2 -3 2 -4.1 0 -1.1 -0.9 -3 -2 -4.1 -2.1 -2.1 -7.2 -2.9 -7.2 -1 0 0.6 -0.7 1 -1.5 1 -1.1 0 -1.5 1.2 -1.5 4.5 0 4.8 -0.1 4.7 7 5.6 0.6 0 2.1 -0.8 3.3 -1.9z"/>
  <path d="M696.7 265.1 c-4.1 -4.1 -4.1 -9.1 0 -13.6 2.5 -2.8 3.7 -3.4 7.3 -3.4 3.6 0 4.8 0.6 7.3 3.4 4.1 4.5 4.1 9.5 0 13.6 -2.4 2.4 -3.9 3 -7.3 3 -3.4 0 -4.9 -0.6 -7.3 -3z m11.2 -3.5 c3.1 -3.2 2.1 -8.5 -1.4 -9.2 -4.6 -0.8 -7.4 0.3 -7.9 3.3 -0.8 3.9 0.1 7.1 2.3 7.6 3.5 1 4.9 0.6 7.1 -1.6z"/>
  <path d="M899 238.2 c-0.3 -4.1 -0.9 -9.5 -1.2 -12 -0.5 -3.5 -0.3 -4.3 0.7 -4 2 0.7 4.1 7.5 4.7 16 0.6 6.9 0.5 7.4 -1.4 7.4 -1.8 0 -2.1 -0.9 -2.8 -7.4z"/>
  <path d="M762.9 226.1 c-23.9 -8.6 -25.7 -9.1 -27.9 -7.7 -2.3 1.5 -2.4 1.5 -2.4 -1.6 l0 -3.2 6.2 0.4 c3.4 0.2 6.5 0.9 6.9 1.4 0.4 0.5 3.1 1.5 5.8 2.3 2.9 0.7 5.3 1.7 5.4 2.4 0.2 0.5 1.1 0.9 2 0.9 2.6 0 15.6 4.4 15.6 5.3 0 0.4 0.7 0.8 1.7 0.8 0.9 0 4.1 0.8 7.2 1.7 4.5 1.4 5.4 2.1 5.4 4.1 0 1.3 -0.1 2.4 -0.2 2.4 -0.2 -0.1 -11.8 -4.2 -25.8 -9.2z"/>
  <path d="M892.3 217.1 c0 -0.9 -1 -2.3 -2.3 -2.8 -1.3 -0.6 -2.8 -2 -3.4 -3.3 -0.5 -1.3 -1.5 -2.4 -2.3 -2.4 -1.9 0 -8.5 -3.4 -8.5 -4.3 0 -0.4 -0.9 -0.8 -2 -0.8 -2.1 0 -21.6 -7.1 -22.5 -8.1 -0.3 -0.4 -2.8 -1.2 -5.6 -1.9 -2.8 -0.7 -5.3 -1.7 -5.6 -2.1 -0.3 -0.5 -2.3 -1.1 -4.3 -1.5 -2.1 -0.4 -3.9 -1.1 -3.9 -1.6 0 -0.6 -0.7 -1 -1.7 -1 -2.5 0 -12.6 -3.4 -12.6 -4.2 0 -0.3 -1.8 -0.9 -4.1 -1.3 -2.3 -0.3 -4.1 -1.1 -4.1 -1.6 0 -0.6 -1.1 -1 -2.6 -1 -1.4 0 -2.6 -0.3 -2.6 -0.8 0 -0.4 -2.5 -1.3 -5.3 -2 -3 -0.7 -5.5 -1.7 -5.7 -2.3 -0.2 -0.6 -1.1 -1 -1.9 -1 -0.9 0 -3.4 -0.5 -5.5 -1.2 -3.2 -0.9 -4 -1.6 -4 -3.5 l0 -2.4 5.4 1.8 c2.9 1 13.4 4.9 23.2 8.6 9.8 3.6 30 11.1 44.7 16.6 28.4 10.5 34.2 13.5 39.2 20.3 3.7 5.1 3.8 5.8 0.5 5.8 -1.7 0 -2.6 -0.5 -2.6 -1.8z"/>
  <path d="M772.4 167.1 c-2.3 -0.6 -2.5 -4.4 -0.3 -4.4 2.6 0 8.7 2.9 8.7 4 0 1.1 -5 1.3 -8.4 0.4z"/>
 </g>
 <g fill="#eb4737">
  <path d="M691.9 547.2 c0.2 -1.2 1 -2.4 1.8 -2.4 2.3 0 1.9 4 -0.3 4.4 -1.5 0.3 -1.8 -0.1 -1.5 -2z"/>
  <path d="M605.3 538.2 c-1.2 -2 0.6 -5.1 3.1 -5.1 2.8 0 4.1 2.7 2.5 4.7 -1.3 1.6 -4.6 1.8 -5.5 0.4z"/>
  <path d="M740 527.7 c-1.6 -1.9 1.1 -5.9 2.9 -4.2 1.4 1.4 1 4.7 -0.6 5.2 -0.6 0.2 -1.6 -0.2 -2.3 -1z"/>
  <path d="M764 472.8 c-0.3 -0.5 0.1 -1.4 0.8 -2 1.6 -1.3 3.3 0.2 2.1 1.9 -0.8 1.2 -2.3 1.3 -3 0.1z"/>
  <path d="M520.9 460.3 c-8.8 -26.6 -14.7 -58.3 -16.6 -89.3 -0.6 -10.7 -0.9 -44.2 -0.7 -80.3 0.3 -61.9 0.3 -61.9 2.7 -67.7 3 -7.3 10.2 -15.6 16.7 -18.7 5.6 -2.9 10.8 -4.9 59.2 -22.4 103.7 -37.5 112.5 -40.5 116.9 -40.5 1.5 0 1.6 0.4 0.7 2.8 -3.5 9.2 -40.3 86.4 -56 117.3 l-14.8 29.5 -6.4 -6.3 c-5.2 -5.2 -6.2 -6.8 -5.4 -8.2 1.5 -2.9 1.1 -12.1 -0.8 -16 -1.8 -4 -7.3 -8 -12.5 -9 -8.6 -1.8 -18.5 4.7 -20.4 13.3 -2.6 11.9 5.2 22 16.9 22 3.1 0 6.5 -0.5 7.7 -1.1 1.8 -1 3 -0.3 9.2 5.9 l7.1 7.1 -9.1 17.4 c-22.9 43.5 -58.8 107.2 -78.7 139.4 -3.7 6 -7.7 12.5 -8.7 14.3 -1.1 1.7 -2.1 3.3 -2.4 3.3 -0.2 0 -2.3 -5.6 -4.5 -12.5z"/>
  <path d="M696.7 379.7 c-6.2 -6.3 -2 -17.5 6.5 -17.5 7.8 0 13.3 9 9.3 15.1 -2.7 4.1 -4.6 5.2 -8.9 5.3 -3 0 -4.6 -0.7 -7 -3z"/>
  <path d="M719.3 223.5 c-3.1 -0.7 -12.1 -2 -20.1 -2.9 -7.9 -0.9 -15.1 -1.8 -16.1 -2.3 -2.3 -0.8 -2.3 -2.1 0.1 -3.5 0.9 -0.6 21 -12.6 44.5 -26.6 23.5 -14.1 43.5 -25.6 44.3 -25.6 2.6 0 1.6 4 -1.1 4.7 -1.4 0.3 -2.6 1 -2.6 1.5 0 0.5 -0.7 0.9 -1.5 0.9 -0.8 0 -1.5 0.4 -1.5 1 0 0.5 -1.1 1.2 -2.6 1.6 -1.4 0.3 -2.6 1 -2.6 1.4 0 0.5 -1 1.2 -2.3 1.6 -1.2 0.3 -2.9 1.3 -3.7 2 -0.7 0.8 -2 1.4 -2.9 1.4 -0.8 0 -1.4 0.4 -1.4 0.9 0 0.5 -1 1.3 -2.3 1.7 -1.2 0.3 -2.9 1.3 -3.7 2 -0.7 0.8 -2 1.4 -2.9 1.4 -0.8 0 -1.4 0.4 -1.4 0.9 0 0.5 -1 1.3 -2.3 1.7 -1.2 0.3 -2.9 1.3 -3.7 2 -0.7 0.8 -2 1.4 -2.9 1.4 -0.8 0 -1.4 0.4 -1.4 0.9 0 0.5 -1 1.3 -2.3 1.7 -1.2 0.3 -2.9 1.3 -3.7 2 -0.7 0.8 -2 1.4 -2.9 1.4 -0.8 0 -1.4 0.4 -1.4 0.9 0 0.5 -1 1.3 -2.3 1.7 -1.2 0.3 -2.9 1.3 -3.7 2 -0.7 0.8 -2 1.4 -2.9 1.4 -0.8 0 -1.4 0.4 -1.4 0.9 0 0.5 -1 1.3 -2.3 1.7 -1.2 0.3 -2.9 1.3 -3.7 2 -0.7 0.8 -2 1.4 -2.9 1.4 -0.8 0 -1.4 0.3 -1.4 0.8 0 0.4 -1.6 1.6 -3.6 2.7 -1.9 1.1 -3.5 2.1 -3.3 2.3 0.2 0.2 5.1 0.8 11.1 1.4 5.8 0.6 14 1.8 18.1 2.7 6 1.3 7.4 1.9 7.4 3.6 0 2.3 -1.2 2.4 -9.2 0.3z"/>
 </g>
 <g fill="#878687">
  <path d="M691.1 641.6 c-5.5 -2.9 -17.2 -9.4 -25.8 -14.6 l-15.7 -9.4 21.3 -0.5 c20.8 -0.5 21.4 -0.6 26.6 -3.3 3 -1.6 5.6 -2.9 5.9 -2.9 0.7 0 0.6 30.7 -0.1 33.6 -0.4 1.2 -1 2.3 -1.4 2.3 -0.4 0 -5.2 -2.4 -10.8 -5.1z"/>
  <path d="M643.4 599.9 c-0.3 -9.5 -0.4 -10 -2.6 -10.3 -2.3 -0.3 -2.4 -0.8 -2.4 -9.5 0 -10.5 1.5 -13.2 7.5 -13.2 6 0 6.9 1.4 7.2 12.3 0.2 9.4 0.1 9.7 -2 10 -2.3 0.3 -2.4 0.7 -2.4 10.5 0 10.1 0 10.1 -2.6 10.1 -2.5 0 -2.5 -0.1 -2.8 -9.9z"/>
  <path d="M655.9 602.9 c0 -6.5 0.2 -7.2 2.7 -8.3 l2.7 -1.2 -0.4 -13 c-0.3 -7.2 -0.9 -13.8 -1.3 -14.8 -0.6 -1.5 -0.4 -1.7 1.8 -1.2 2.4 0.6 2.7 0.3 3.3 -3.5 0.7 -4.4 4.3 -8.3 7.6 -8.3 4 0 5.4 2.7 8.8 16.5 l3.3 13.7 -4.2 0.5 c-4.1 0.5 -4.2 0.6 -4.9 5.1 -0.3 2.6 -0.7 8.4 -0.7 13.1 -0.1 7.5 -0.3 8.4 -2 8.4 -1.5 0 -1.9 -1.1 -2.6 -6.2 -0.3 -3.5 -0.6 -9.3 -0.6 -12.8 l0 -6.5 -3.7 0 -3.7 0 0.3 12.8 0.4 12.8 -3.3 0 -3.4 0 0 -7z"/>
  <path d="M681.9 606.1 c0.3 -2.1 0.6 -6.5 0.6 -9.7 0 -5.9 0 -5.9 3.2 -5.9 1.7 0 3.9 -0.4 4.9 -1 2.1 -1.1 1.8 -4.3 -2.8 -24.3 l-2.9 -12.5 2.5 2 c2.8 2.1 8.4 2.6 11.5 0.9 1 -0.5 2.7 -0.7 3.5 -0.4 1.4 0.5 1.6 3.7 1.6 23.5 l0 23 -8.4 4 c-4.6 2.3 -9.7 4.1 -11.4 4.1 -3 0 -3 -0.1 -2.4 -3.8z"/>
  <path d="M627.3 600.9 c-11.2 -8.6 -26.5 -21.9 -34.2 -29.8 l-6 -6.1 8.3 -9 8.3 -9.1 5.2 0 c5.2 0 5.3 0 12.8 8 4.1 4.4 8.1 8 8.9 8 0.7 0 1.9 -0.9 2.6 -2 1.1 -1.7 0.7 -2.7 -3.7 -7.9 -2.8 -3.3 -6.3 -7.2 -7.9 -8.7 l-3 -2.8 -0.3 -23.6 -0.4 -23.5 13.9 0 13.8 0 0.3 10.5 0.3 10.4 11.8 0 11.8 0 0.3 -28.9 0.2 -29 9.7 0 9.7 0 0 28.4 c0 15.6 0.3 29.4 0.6 30.7 0.6 2 1.2 2.3 7.2 2.3 l6.5 0 0 9.6 c0 10.2 -0.9 12.1 -5.1 9.8 -3.5 -1.8 -8.9 -1.2 -12 1.4 -2.3 1.9 -2.8 3.3 -2.9 7 l0 4.6 -3.3 -2.7 c-1.8 -1.4 -2.9 -2.9 -2.4 -3 1.7 -0.6 4.1 -6 4.1 -9.4 0 -8.8 -7.8 -13.6 -15.3 -9.7 -6.5 3.4 -7.7 12 -2.5 17.2 l2.6 2.7 -3.2 1.6 c-3.6 1.8 -6.1 6.9 -6.1 11.8 0 3.6 0.2 3.5 -4.2 1.6 -2.9 -1.2 -3.2 -1.6 -1.6 -2.1 2.4 -1 4.8 -5.7 4.8 -9.5 0 -6 -7.6 -11.5 -13.7 -9.8 -3.9 0.9 -7.8 6 -7.8 10 0 1.8 1.1 5 2.4 7 l2.5 3.5 -3 1.7 c-4.6 2.7 -5.9 7.3 -5.9 20.7 0 11.2 0.1 11.8 2 11.8 2.7 0 3.3 1.6 2.9 8 l-0.3 5.1 -8.7 -6.8z"/>
  <path d="M798.2 573.3 c-0.2 -3.8 -2.4 -7.5 -4.7 -8.1 -5.1 -1.2 -6.2 -1.1 -8.4 1.5 l-2.4 2.7 0.2 -3.6 c0.1 -2 -0.2 -4.3 -0.7 -5 -1.1 -1.8 4 -0.9 10.3 1.8 4.8 2.1 7 5.6 6.2 10.2 -0.3 2.3 -0.4 2.4 -0.6 0.4z"/>
  <path d="M572.9 549.9 c-4 -4.8 -7.1 -8.9 -7 -9.1 0.8 -0.6 31.6 -1 31.8 -0.3 0.4 0.9 -15.5 18.2 -16.6 18.2 -0.5 0 -4.2 -4 -8.3 -8.8z"/>
  <path d="M643 552.1 c-1.1 -2.9 0.4 -4.9 3.4 -4.5 2.3 0.2 2.9 0.8 2.9 2.9 0 2 -0.6 2.7 -2.9 2.9 -1.8 0.2 -3 -0.2 -3.4 -1.2z"/>
  <path d="M669.2 537.3 c-0.7 -1.5 -0.6 -2.4 0.6 -3.6 0.8 -0.9 1.9 -1.6 2.5 -1.6 0.5 0 1.6 0.7 2.5 1.6 2 1.9 0.5 5.5 -2.5 5.5 -1.1 0 -2.5 -0.9 -3.1 -1.9z"/>
  <path d="M554.2 525.7 c-9.3 -13.1 -27.8 -46.8 -27 -49.1 0.2 -0.4 13.2 -8.1 29 -17 l28.7 -16.2 3.2 3.4 c3.9 4.1 7.3 5.4 13.6 5.4 9.5 0 16.5 -7.5 16.5 -17.4 l0 -5.9 33.7 -20.1 c18.5 -10.9 34.8 -20.6 36.2 -21.2 2.3 -1 3.1 -0.8 5.3 0.9 1.5 1.2 4.7 2.5 7.3 2.9 2.5 0.3 4.3 1 4 1.4 -0.3 0.5 -0.6 27.3 -0.7 59.8 l-0.2 58.9 -2.9 0 -2.9 0 0 -30.2 c0 -29.7 0 -30.1 -2.1 -31.3 -3.5 -1.8 -31.4 -0.8 -32.6 1.1 -0.6 0.8 -1 13.8 -1 29.5 l0 27.8 -4.6 0 -4.6 0 0 -10.6 c0 -8.7 -0.3 -10.7 -1.6 -11.3 -2 -0.8 -36.6 -0.8 -38.7 0 -1.4 0.5 -1.6 3.3 -1.6 19.9 l0 19.1 -2.5 -0.4 c-3 -0.6 -8.6 2.5 -9.4 5 -0.5 1.6 -2.3 1.8 -20.4 1.8 l-19.9 0 -4.6 -6.3z"/>
  <path d="M823.4 530.5 c-0.4 -0.4 -0.7 -1.6 -0.7 -2.7 0 -1.4 0.6 -1.9 2.4 -1.6 1.4 0.2 2.3 1 2.3 2.4 0 2 -2.6 3.3 -3.9 1.9z"/>
  <path d="M722.2 511.9 c1.2 -0.2 3.1 -0.2 4.1 0 0.9 0.3 -0.1 0.5 -2.4 0.4 -2.3 0 -3.1 -0.2 -1.7 -0.4z"/>
  <path d="M718 492.2 c-0.3 -0.8 -0.7 -4.2 -0.9 -7.5 l-0.3 -5.8 4.6 0.1 c3 0.1 3.6 0.3 1.8 0.6 -2.4 0.4 -2.9 1 -3.3 4.7 -1.2 9.4 -1.2 9.4 -1.9 7.9z"/>
  <path d="M823.4 481.3 c0.4 -1.2 1.4 -1.4 3.7 -1 1.6 0.3 5.8 0.6 9.2 0.6 8.8 0 7 0.6 -4.1 1.3 -8.4 0.6 -9.4 0.5 -8.8 -0.9z"/>
  <path d="M863.2 433.1 c-10.6 -14.9 -19.5 -28.2 -19.9 -29.6 -0.6 -3.6 3.6 -3.5 4.5 0.1 0.3 1.4 1 2.6 1.5 2.6 0.5 0 0.9 0.9 0.9 2 0 1.1 0.7 2 1.5 2 0.8 0 1.5 0.7 1.5 1.5 0 0.8 0.5 1.5 1 1.5 0.6 0 1 0.7 1 1.5 0 0.8 0.5 1.5 1 1.5 0.6 0 1 0.9 1 2 0 1.1 0.7 2 1.5 2 0.8 0 1.5 0.6 1.5 1.4 0 0.8 0.7 1.6 1.5 2 0.8 0.3 1.5 1.2 1.5 2.1 0 0.8 0.5 1.5 1 1.5 0.6 0 1 0.9 1 2 0 1.1 0.7 2 1.5 2 0.8 0 1.5 0.7 1.5 1.5 0 0.8 0.5 1.5 1 1.5 0.6 0 1 0.9 1 2 0 1.1 0.7 2 1.5 2 0.8 0 1.5 0.7 1.5 1.5 0 0.8 0.5 1.5 1 1.5 0.6 0 1 0.9 1 2 0 1.1 0.7 2 1.5 2 0.8 0 1.5 0.7 1.5 1.5 0 0.8 0.5 1.5 1 1.5 0.6 0 1 0.7 1 1.5 0 3.3 1.8 1.3 2.5 -2.6 0.3 -2.3 1.1 -4.1 1.6 -4.1 0.6 0 1 -1.2 1 -2.7 0 -1.4 0.9 -6.3 2.1 -10.8 3.3 -13 6.8 -31.1 8.2 -42.5 1.1 -9.2 1.5 -10.5 3.3 -10.5 2.3 0 2.1 1.1 -1.9 26.1 -3.2 19.6 -12.8 56.9 -14.5 56.8 -0.4 -0.1 -9.4 -12.3 -20.1 -27.3z"/>
  <path d="M596.6 443.4 c-4.3 -2.1 -6.5 -6.3 -5.6 -10.4 1.6 -7.6 11.2 -10.3 16.6 -4.9 3.7 3.6 3.9 9.8 0.5 13.2 l-2.3 2.3 0.2 -6.3 c0.1 -3.5 -0.1 -6.7 -0.5 -7 -0.7 -0.7 -8.7 -0.9 -9.3 -0.3 -0.2 0.2 -0.6 1.5 -0.9 3 -0.8 3.5 3.1 8.2 6.9 8.2 1.6 0 2.7 0.5 2.7 1.5 0 0.8 -0.4 1.5 -0.9 1.5 -0.5 0 -1.5 0.2 -2.4 0.5 -0.7 0.3 -3 -0.3 -4.9 -1.2z"/>
  <path d="M787.4 435.5 c-3.3 -3.3 -4.1 -7.1 -2.6 -10.9 1.6 -4 4.7 -6 9 -6 4.5 0 7 1.4 9 5.3 3.5 6.8 -1.1 14.1 -9 14.1 -2.9 0 -4.7 -0.7 -6.4 -2.5z m10.4 -3.9 c1.3 -1.2 2.4 -3.4 2.4 -5 0 -2.4 -0.5 -2.9 -3.6 -3.4 -2.7 -0.5 -4.3 -0.2 -6.1 1.1 -3.2 2.4 -3.3 5 -0.2 7.6 3 2.5 4.7 2.5 7.6 -0.3z"/>
  <path d="M898.4 372 c0 -3.9 0.3 -4.6 2 -4.6 2.1 0 2.7 2.4 1.4 7 -1.1 4.2 -3.5 2.7 -3.5 -2.4z"/>
  <path d="M899.4 288.6 c0 -41.1 0.2 -49.1 1.4 -49.1 0.7 0 1.6 1 2 2.4 0.8 3 0.8 90.6 0 93.6 -0.4 1.2 -1.3 2.3 -2 2.3 -1.2 0 -1.4 -8 -1.4 -49.1z"/>
  <path d="M791.8 299.1 c-3.2 -0.8 -2.1 -3.4 1.2 -3.4 1.7 0 3.1 -0.4 3.1 -1 0 -0.5 0.6 -1 1.4 -1 0.8 0 1.7 -1.1 2 -2.5 1 -4 -3.4 -7.8 -8.1 -7.1 l-3.7 0.6 0.6 6.8 0.7 6.8 -2.1 -2.1 c-1.2 -1.1 -2.5 -3.7 -2.8 -5.6 -0.5 -2.9 -0.1 -4.2 2 -6.8 3.4 -4 6.8 -4.8 11.4 -3 4.4 1.8 7.3 7.5 5.8 11.7 -1.4 4.3 -7.5 7.8 -11.7 6.7z"/>
  <path d="M596.6 277.6 c-9.5 -4.8 -6.4 -18.2 4.2 -18.2 8.5 0 13 10.4 7.1 16.3 -3.6 3.5 -7 4.1 -11.3 1.9z m8.9 -3.8 c0.3 -0.2 0.6 -5.2 0.5 -7.4 -0.4 -4.3 -9.9 -4 -10.7 0.3 -0.6 3.5 0.2 6.4 1.9 6.4 0.8 0 1.4 0.5 1.4 1.1 0 0.7 1.2 0.8 3.4 0.4 1.7 -0.4 3.4 -0.8 3.5 -0.9z"/>
  <path d="M842.7 275.6 c-1.1 -7.3 -2.6 -11.2 -5.7 -16 -6 -9.1 -9.9 -11.1 -53.4 -26.5 -22.1 -7.9 -41.6 -14.8 -43.5 -15.5 -3.2 -1 -3.6 -0.8 -7.9 3.4 -4.3 4.2 -7.7 5 -7.7 1.8 0 -2.7 5.4 -7 8.9 -7 1.8 0 3.4 -0.4 3.4 -1 0 -0.5 1.6 -1 3.6 -1 1.9 0 3.6 0.5 3.6 1 0 0.6 0.9 1 1.9 1 2.6 0 26.1 8.4 26.5 9.4 0.2 0.4 1.2 0.8 2.3 0.8 2.6 0 29.1 9.4 29.5 10.4 0.2 0.4 1.1 0.8 2 0.8 3.7 0 17.6 5.3 17.6 6.8 0 0.9 1.1 1.4 3.1 1.4 1.7 0 3.1 0.4 3.1 0.9 0 0.5 0.9 1.1 2 1.4 1.4 0.3 2 1.4 2 3.2 0 2.1 0.5 2.7 2.6 2.7 1.5 0 2.9 0.7 3.3 1.8 0.4 0.9 1.3 2.4 2 3.1 0.7 0.7 1.3 2.5 1.3 3.8 0 1.3 0.5 2.6 1 2.8 0.6 0.2 1.3 3.4 1.7 7.3 0.5 5.8 0.4 6.9 -1 6.9 -1.1 0 -1.8 -1.2 -2.3 -3.8z"/>
  <path d="M699 266.7 c-2.7 -1.5 -5.1 -5.2 -5.2 -8.1 0 -3.5 3.2 -8 6.8 -9.5 3 -1.2 4 -1.2 7 0 3.7 1.5 6.8 6 6.8 9.9 0 1.1 -1.5 3.7 -3.5 5.6 -3.8 3.8 -7.5 4.4 -11.8 2z m9.7 -3.7 c2.5 0 1.6 -5.8 -1.1 -8.7 -1.4 -1.4 -3.1 -2.6 -3.7 -2.6 -1.6 0 -6 4.8 -6 6.7 0 3 3.4 5.6 6.5 5.1 1.6 -0.3 3.6 -0.5 4.3 -0.5z"/>
  <path d="M898.4 232.7 c0 -2 -5.2 -14.1 -6.3 -14.5 -0.4 -0.2 -0.8 -2 -0.8 -4 0 -3.7 0 -3.7 2 -1.8 2.7 2.5 7.9 13.2 8.8 18.2 0.6 3.4 0.4 3.8 -1.5 3.8 -1.3 0 -2.1 -0.6 -2.1 -1.6z"/>
  <path d="M702.8 220.3 c-3.4 -0.8 -2 -3.4 1.7 -3.4 2.9 0 3.6 0.4 3.6 2 0 2 -1.4 2.4 -5.3 1.3z"/>
  <path d="M883.1 207.2 c0 -3.2 1.1 -3.3 4.8 0 l2.9 2.5 -3.8 0.1 c-3.5 0 -3.9 -0.3 -3.9 -2.6z"/>
  <path d="M871.3 203.8 c-2.3 -0.9 -4.3 -1.9 -4.6 -2.4 -0.3 -0.3 -2.3 -0.9 -4.3 -1.3 -2.1 -0.4 -3.9 -1.1 -3.9 -1.6 0 -0.6 -0.9 -1 -1.9 -1 -2.1 0 -13.6 -4.1 -14.4 -5.2 -0.3 -0.3 -2.3 -0.9 -4.3 -1.3 -2.1 -0.4 -3.9 -1.1 -3.9 -1.6 0 -0.6 -0.7 -1 -1.7 -1 -2.7 0 -12.6 -3.4 -12.6 -4.3 0 -0.4 -0.9 -0.8 -2 -0.8 -2 0 -21.6 -7.1 -22.5 -8.2 -0.3 -0.3 -2.8 -1.1 -5.6 -1.8 -2.8 -0.7 -5.2 -1.7 -5.4 -2.4 -0.2 -0.5 -1.1 -0.9 -1.9 -0.9 -3.5 0 -12.6 -3.5 -12.6 -4.8 0 -3.6 1.5 -3.1 43.5 12.5 74.1 27.4 69.1 25.5 69.1 27.1 0 1.5 -6.1 1 -10.7 -0.8z"/>
  <path d="M709.1 200.8 c0 -0.7 10.4 -7.4 11.7 -7.4 0.3 0 0.6 1.1 0.6 2.6 0 2 -0.5 2.6 -2.6 2.6 -1.6 0 -2.6 0.6 -2.6 1.5 0 1 -1.1 1.5 -3.6 1.5 -1.9 0 -3.6 -0.3 -3.6 -0.8z"/>
  <path d="M724.5 191.6 c0 -0.8 5.3 -4.3 6.5 -4.3 0.3 0 0.6 1.1 0.6 2.6 0 2.3 -0.4 2.6 -3.6 2.6 -1.9 0 -3.6 -0.4 -3.6 -0.8z"/>
 </g>
 <g fill="#fefefe">
  <path d="M863.9 433.7 c-10.1 -14.2 -18.8 -26.6 -19.3 -27.4 -0.5 -0.9 -1.1 -30.6 -1.4 -69.1 l-0.5 -67.5 -2.9 -5.7 c-3.1 -6.3 -9.5 -12.9 -15.8 -16.2 -4.8 -2.5 -84.5 -30.8 -86.6 -30.8 -0.8 0 -3.5 1.7 -5.9 4 l-4.5 4 -7.2 -1.8 c-4 -1 -12.9 -2.4 -20 -3 -14.3 -1.4 -17.4 -1.9 -17.4 -3.3 0 -1 -0.9 -0.4 26.1 -16.5 11.9 -7.1 30.7 -18.4 42.1 -25.2 l20.6 -12.5 7.1 2.5 c3.9 1.3 15.9 5.6 26.5 9.6 10.7 4 32.1 11.9 47.6 17.6 15.5 5.7 30.1 11.6 32.3 12.9 5.7 3.3 10.3 8.7 14.1 16.8 l3.2 6.7 0 73.7 c0 79.1 0 79.8 -5.7 109 -4 20.5 -11.6 48.1 -13.1 48.1 -0.5 0 -9.1 -11.7 -19.2 -25.8z"/>
  <path d="M594.1 441.4 c-5.9 -6 -2 -15.8 6.3 -15.8 7.3 0 11.7 6.4 8.9 13.1 -2.6 5.9 -10.4 7.4 -15.2 2.7z"/>
  <path d="M787.8 435.1 c-4.6 -4.1 -4.6 -9.6 -0.1 -13.6 5.4 -4.9 13.3 -3.1 15.5 3.5 1.4 4.3 0.3 7.8 -3.6 10.8 -3.8 3 -7.9 2.8 -11.8 -0.7z"/>
  <path d="M788.2 297.3 c-3 -2 -4.7 -7.7 -3.5 -11.1 3.7 -9.5 18.5 -6.7 18.5 3.6 0 7.4 -8.9 11.8 -15 7.5z"/>
  <path d="M594.1 275.8 c-3.7 -3.4 -3.8 -9.7 -0.1 -13.3 3.5 -3.6 9.8 -3.6 13.3 0 3.6 3.5 3.6 9.8 0 13.3 -3.4 3.5 -9.4 3.5 -13.2 0z"/>
  <path d="M700.4 267.2 c-4.6 -1.9 -7.4 -7.4 -5.7 -11.7 2.8 -7.2 10.7 -9.2 15.9 -3.9 2.4 2.5 2.8 3.7 2.5 7.4 -0.3 3.8 -0.8 4.8 -3.8 6.8 -3.7 2.5 -5.4 2.8 -8.8 1.4z"/>
 </g>
</svg>